<svg height="749pt" preserveAspectRatio="xMidYMid meet" viewBox="0 0 749 749" width="749pt" xmlns="http://www.w3.org/2000/svg"><path d="m1200 5931v-60l33-5c17-2 69-10 114-16 113-15 169-36 213-80 45-45 66-104 80-225 14-126 14-2987-1-3164-28-357-100-446-411-515-27-6-28-9-28-67v-60l83 7c114 10 826 11 970 1l117-8v60 60l-47 6c-313 44-442 129-494 326-38 144-40 262-37 1851l3 1537 806-1922 806-1922h48 48l713 1865c393 1026 718 1874 723 1885 7 13 9-577 8-1650-3-1820 0-1736-59-1836-46-78-144-115-350-134l-78-7v-60-59l158 8c203 10 1369 10 1575 0l157-8v60 59l-67 7c-243 24-322 75-360 230-16 64-17 208-21 1675-2 1043 0 1649 7 1730 13 154 32 219 81 269 44 45 99 66 213 81 45 6 97 14 115 16l32 5v61 60l-27-6c-16-3-323-9-684-13l-655-6-549-1444c-302-793-551-1443-554-1443-4 0-186 433-405 963-220 529-491 1184-604 1455l-204 492-67-7c-88-10-1304-10-1358 0l-43 7z" transform="matrix(.1 0 0 -.1 0 749)"/></svg>